# xmcd
#
# Track frame offsets:
#	150
#	13226
#	24589
#	39711
#	56048
#	67911
#	84771
#	97801
#	111677
#	124016
#	132435
#	146728
#	161328
#	184582
#	196912
#
# Disc length: 2807 seconds
#
# Revision: 1
# Processed by: cddbd v1.5.2PL0 Copyright (c) Steve Scherf et al.
# Submitted via: audiograbber 1.83.01
#
DISCID=cb0af50f
DTITLE=Various Artist - 30 Country Hits [CD1)
DYEAR=1900
DGENRE=
TTITLE0=Lynn Anderson - Rose Garden
TTITLE1=Dave Dudley - Six Days On The Road
TTITLE2=Billie Jo Spears - Blanket On The Ground
TTITLE3=Rex Allen - Memory Train
TTITLE4=Don Williams - Tulsa Time
TTITLE5=Linda Ronstadt - I'm Gonna Love
TTITLE6=Hank Williams - Jambalaya (On The Bayou)
TTITLE7=Juice Newton - Listen To The Radio
TTITLE8=Bobby Bare - Green Green Grass Of Home
TTITLE9=Lorne Greene - Bonanza
TTITLE10=Freddie Fender - Wasted Days And Wasted Nights
TTITLE11=Lee Hazlewood - These Boots Are Made For Walking
TTITLE12=Olivia Newton-John - If You Could Read My Mind
TTITLE13=Charlie Rich - Behind Closed Doors
TTITLE14=Anne Murray - Last Thing On My Mind
EXTD=
EXTT0=
EXTT1=
EXTT2=
EXTT3=
EXTT4=
EXTT5=
EXTT6=
EXTT7=
EXTT8=
EXTT9=
EXTT10=
EXTT11=
EXTT12=
EXTT13=
EXTT14=
PLAYORDER=
